<svg width="26" height="26" viewBox="0 0 26 26" fill="none" xmlns="http://www.w3.org/2000/svg">
<g filter="url(#filter0_d_60_5748)">
<path d="M4 10.3413C4 9.68868 4.31842 9.0771 4.85308 8.70285L6 7.9L11.8531 3.80285C12.5417 3.3208 13.4583 3.3208 14.1469 3.80285L21.1469 8.70285C21.6816 9.0771 22 9.68868 22 10.3413V19.2C22 19.6774 21.7893 20.1352 21.4142 20.4728C21.0391 20.8104 20.5304 21 20 21H6C5.46957 21 4.96086 20.8104 4.58579 20.4728C4.21071 20.1352 4 19.6774 4 19.2V11.1V10.3413Z" stroke="#3B4B6F" stroke-width="1.5" stroke-linecap="round" stroke-linejoin="round"/>
<circle cx="12.5" cy="12.5" r="1.75" stroke="#FF962E" stroke-width="1.5"/>
</g>
<defs>
<filter id="filter0_d_60_5748" x="0.25" y="0.691406" width="25.5" height="25.0586" filterUnits="userSpaceOnUse" color-interpolation-filters="sRGB">
<feFlood flood-opacity="0" result="BackgroundImageFix"/>
<feColorMatrix in="SourceAlpha" type="matrix" values="0 0 0 0 0 0 0 0 0 0 0 0 0 0 0 0 0 0 127 0" result="hardAlpha"/>
<feOffset dy="1"/>
<feGaussianBlur stdDeviation="1.5"/>
<feComposite in2="hardAlpha" operator="out"/>
<feColorMatrix type="matrix" values="0 0 0 0 0.0745098 0 0 0 0 0.137255 0 0 0 0 0.278431 0 0 0 0.25 0"/>
<feBlend mode="normal" in2="BackgroundImageFix" result="effect1_dropShadow_60_5748"/>
<feBlend mode="normal" in="SourceGraphic" in2="effect1_dropShadow_60_5748" result="shape"/>
</filter>
</defs>
</svg>
