<svg width="18" height="18" viewBox="0 0 18 18" fill="none" xmlns="http://www.w3.org/2000/svg">
<path d="M17.4242 0.134766H7.8556C7.53725 0.134766 7.27979 0.393043 7.27979 0.710907V4.77464L7.69611 4.28788C7.89381 4.05645 8.15444 3.91374 8.43144 3.85412V1.28683H16.8483V8.80973H8.43148V7.55041L8.17217 7.85364C7.94556 8.11806 7.62568 8.28214 7.27979 8.31447V9.38569C7.27979 9.70355 7.53725 9.9615 7.8556 9.9615H10.9632L9.38441 17.1293C9.31368 17.4507 9.51682 17.7686 9.83851 17.8396C10.1573 17.9096 10.4778 17.7071 10.5479 17.386L12.1831 9.96153H13.1337L14.7688 17.386C14.8301 17.664 15.0767 17.8536 15.3501 17.8533C15.3925 17.8533 15.4359 17.849 15.4789 17.8396C15.8006 17.7686 16.0037 17.4508 15.9323 17.1293L14.3537 9.9615H17.4242C17.7423 9.9615 18 9.70355 18 9.38569V0.710907C18 0.393043 17.7422 0.134766 17.4242 0.134766Z" fill="url(#paint0_linear_103_1517)"/>
<path d="M12.8502 3.49837C12.8048 3.38398 12.6761 3.32782 12.5618 3.3731L9.16935 4.57051C8.858 4.32945 8.40879 4.37252 8.14915 4.67449L7.07267 5.9316L6.11816 5.1134C6.12445 5.18097 6.13876 5.24662 6.13876 5.31596V7.09216L6.66981 7.54718C6.98495 7.81708 7.45638 7.77537 7.71988 7.46633L9.00141 5.96776L10.035 5.36311L12.755 3.7717C12.849 3.71748 12.8907 3.60162 12.8502 3.49837Z" fill="url(#paint1_linear_103_1517)"/>
<path d="M4.0433 3.81738H3.40401C2.91452 3.81738 2.48411 4.05528 2.21053 4.41791L0.248179 6.2246C-0.0575831 6.49697 -0.0853162 6.96876 0.190028 7.27636L1.79104 9.06338C2.064 9.36899 2.53649 9.39603 2.84221 9.12135C3.14875 8.84663 3.17464 8.37609 2.89996 8.06992L1.79641 6.8376L3.36388 5.43498L2.45097 6.67528L3.34398 7.67231C3.83744 8.22374 3.79091 9.07099 3.23974 9.56482C2.86344 9.90218 2.3499 9.98133 1.9047 9.82574C1.9047 9.82574 1.91161 13.2706 1.91161 16.9599C1.91161 17.4534 2.31157 17.8534 2.80506 17.8534C3.29804 17.8534 3.69852 17.4534 3.69852 16.9599C3.69852 13.2718 3.69852 15.3764 3.69852 11.6351H4.29448C4.29448 15.3737 4.29448 13.2706 4.29448 16.9599C4.29448 17.2175 4.22265 17.4561 4.10811 17.6672C4.25803 17.7826 4.44459 17.8534 4.64791 17.8534C5.14166 17.8534 5.54162 17.4534 5.54162 16.9599C5.54162 13.2718 5.54276 14.8179 5.54276 5.3164C5.54284 4.48849 4.87169 3.81738 4.0433 3.81738Z" fill="url(#paint2_linear_103_1517)"/>
<path d="M2.92749 3.281C3.16639 3.40517 3.4346 3.48223 3.7227 3.48223C4.01155 3.48223 4.27976 3.40517 4.51935 3.28078C5.07857 2.99105 5.46404 2.41425 5.46404 1.74104C5.46404 0.779358 4.68442 0 3.72267 0C2.76106 0 1.98163 0.779358 1.98163 1.74104C1.98167 2.41461 2.36754 2.99164 2.92749 3.281Z" fill="url(#paint3_linear_103_1517)"/>
<defs>
<linearGradient id="paint0_linear_103_1517" x1="12.6399" y1="0.134766" x2="12.6399" y2="17.8534" gradientUnits="userSpaceOnUse">
<stop stop-color="#230007"/>
<stop offset="1" stop-color="#009FFF"/>
</linearGradient>
<linearGradient id="paint1_linear_103_1517" x1="9.4919" y1="3.35742" x2="9.4919" y2="7.72628" gradientUnits="userSpaceOnUse">
<stop stop-color="#230007"/>
<stop offset="1" stop-color="#009FFF"/>
</linearGradient>
<linearGradient id="paint2_linear_103_1517" x1="2.77138" y1="3.81738" x2="2.77138" y2="17.8534" gradientUnits="userSpaceOnUse">
<stop stop-color="#230007"/>
<stop offset="1" stop-color="#009FFF"/>
</linearGradient>
<linearGradient id="paint3_linear_103_1517" x1="3.72283" y1="0" x2="3.72283" y2="3.48223" gradientUnits="userSpaceOnUse">
<stop stop-color="#230007"/>
<stop offset="1" stop-color="#009FFF"/>
</linearGradient>
</defs>
</svg>
