<svg width="18" height="18" viewBox="0 0 18 18" fill="none" xmlns="http://www.w3.org/2000/svg">
<g clip-path="url(#clip0_103_1528)">
<path opacity="0.91" d="M12.1578 2C11.3113 2.00129 10.519 2.43171 10.0373 3.15207C10.2178 3.62465 10.3214 4.13566 10.3214 4.67084C10.3214 5.19816 10.1928 5.68302 10 6.13765C10.4767 6.89078 11.2878 7.34501 12.1578 7.34613C13.585 7.34647 14.7421 6.14917 14.7418 4.67232C14.7413 3.19606 13.5845 1.99966 12.1578 2ZM14.4692 7.90138L12.9354 10.3837C13.3238 11.2607 13.5515 12.2207 13.5782 13.2252L13.594 13.8206L13.2152 14.2674C12.6682 14.914 12.0297 15.4745 11.3314 15.9495C11.6151 15.9824 11.9028 16 12.1951 16C14.5125 16 16.5858 14.94 18 13.2683C17.9375 10.9191 16.5583 8.82309 14.4692 7.90138Z" fill="url(#paint0_linear_103_1528)"/>
<path opacity="0.91" d="M5.96285 2C5.61224 2 5.26506 2.06914 4.94114 2.20348C4.61722 2.33782 4.32289 2.53474 4.07497 2.78296C3.82706 3.03118 3.6304 3.32585 3.49622 3.65017C3.36205 3.97449 3.29299 4.32209 3.29299 4.67313C3.29299 5.02417 3.36205 5.37179 3.49622 5.69611C3.6304 6.02042 3.82706 6.31509 4.07497 6.56332C4.32289 6.81154 4.61722 7.00846 4.94114 7.1428C5.26506 7.27713 5.61224 7.34628 5.96285 7.34628C6.31346 7.34628 6.66063 7.27713 6.98455 7.1428C7.30848 7.00846 7.6028 6.81154 7.85072 6.56332C8.09864 6.31509 8.2953 6.02043 8.42947 5.69611C8.56364 5.37179 8.6327 5.02417 8.6327 4.67313C8.6327 4.32209 8.56364 3.97449 8.42947 3.65017C8.2953 3.32585 8.09864 3.03116 7.85072 2.78294C7.6028 2.53471 7.30848 2.33782 6.98455 2.20348C6.66063 2.06914 6.31346 2 5.96285 2ZM8.35111 7.90101L6.02021 11.5518L3.65801 7.9036C1.49702 8.82175 0.0681992 10.9161 0 13.2655C1.4616 14.9385 3.60462 16 6.00065 16C8.39567 16 10.5384 14.9399 12 13.2681C11.9354 10.919 10.5102 8.82269 8.35111 7.90101Z" fill="url(#paint1_linear_103_1528)" stroke="#FF0000" stroke-width="0.004"/>
</g>
<defs>
<linearGradient id="paint0_linear_103_1528" x1="18" y1="9.15542" x2="10" y2="9.15542" gradientUnits="userSpaceOnUse">
<stop stop-color="#B11F3E"/>
<stop offset="1" stop-color="#DE2149"/>
</linearGradient>
<linearGradient id="paint1_linear_103_1528" x1="1.2502e-07" y1="9.15565" x2="11.8405" y2="9.15565" gradientUnits="userSpaceOnUse">
<stop stop-color="#185CAB"/>
<stop offset="1" stop-color="#1873DC"/>
</linearGradient>
<clipPath id="clip0_103_1528">
<rect width="18" height="18" fill="white"/>
</clipPath>
</defs>
</svg>
